<?xml version="1.0" encoding="UTF-8" standalone="no"?>
<svg
   viewBox="0 0 120 120"
   version="1.1"
   id="svg4"
   sodipodi:docname="books.svg"
   width="120"
   height="120"
   inkscape:version="1.1.2 (0a00cf5339, 2022-02-04)"
   xmlns:inkscape="http://www.inkscape.org/namespaces/inkscape"
   xmlns:sodipodi="http://sodipodi.sourceforge.net/DTD/sodipodi-0.dtd"
   xmlns="http://www.w3.org/2000/svg"
   xmlns:svg="http://www.w3.org/2000/svg">
  <defs
     id="defs8" />
  <sodipodi:namedview
     id="namedview6"
     pagecolor="#ffffff"
     bordercolor="#666666"
     borderopacity="1.0"
     inkscape:pageshadow="2"
     inkscape:pageopacity="0.0"
     inkscape:pagecheckerboard="0"
     showgrid="false"
     inkscape:zoom="3.99105"
     inkscape:rotation="-1"
     inkscape:cx="31.950454"
     inkscape:cy="87.535787"
     inkscape:window-width="1890"
     inkscape:window-height="1082"
     inkscape:window-x="1661"
     inkscape:window-y="131"
     inkscape:window-maximized="0"
     inkscape:current-layer="svg4" />
  <!--! Font Awesome Pro 6.4.0 by @fontawesome - https://fontawesome.com License - https://fontawesome.com/license (Commercial License) Copyright 2023 Fonticons, Inc. -->
  <path
     id="path2"
     style="stroke-width:0.156254;fill:#c8c8c8;fill-opacity:1"
     d="M 97.265625 78.476562 L 94.855469 79.134766 L 97.330078 88.65625 C 98.033228 91.37508 96.455153 94.080058 93.970703 94.767578 L 84.658203 97.345703 C 82.205013 98.017603 79.580098 96.54695 78.892578 93.84375 L 76.392578 84.203125 L 81.701172 82.732422 L 73.96875 84.847656 L 76.470703 94.46875 C 77.501983 98.45324 81.470588 100.81449 85.330078 99.751953 L 94.642578 97.173828 C 98.502058 96.111298 100.78322 92.01574 99.751953 88.03125 L 97.265625 78.476562 z " />
  <path
     id="path2720"
     style="stroke-width:0.156254;fill:#f39200;fill-opacity:1"
     d="M 86.03125 35.152344 L 62.740234 41.611328 L 63.048828 42.796875 L 73.345703 82.453125 L 73.658203 83.65625 L 73.96875 84.847656 L 81.701172 82.732422 L 94.845703 79.09375 L 94.855469 79.134766 L 97.265625 78.476562 L 97.251953 78.421875 L 96.939453 77.21875 L 86.658203 37.5625 L 86.345703 36.359375 L 86.03125 35.152344 z M 84.251953 38.21875 L 84.251953 38.234375 L 94.236328 76.671875 L 75.751953 81.765625 L 65.783203 43.328125 L 84.251953 38.21875 z " />
  <path
     id="path2644"
     style="stroke-width:0.156254;fill:#c8c8c8;fill-opacity:1"
     d="M 76.478516 19.994141 C 75.881754 19.999868 75.276872 20.082027 74.673828 20.248047 L 65.361328 22.826172 C 64.048788 23.185552 62.908228 23.904272 62.017578 24.857422 C 60.955048 22.013592 58.21884 19.998047 55 19.998047 L 47.5 19.998047 C 44.89055 19.998047 42.59379 21.326112 41.25 23.357422 C 39.90621 21.326112 37.60944 19.998047 35 19.998047 L 27.5 19.998047 C 23.35926 19.998047 20 23.35926 20 27.5 L 20 35 L 20 36.25 L 20 37.5 L 20 82.5 L 20 83.75 L 20 85 L 20 92.5 C 20 96.64074 23.35926 100.00195 27.5 100.00195 L 35 100.00195 C 37.60944 100.00195 39.90621 98.673888 41.25 96.642578 C 42.59379 98.658258 44.89055 100.00195 47.5 100.00195 L 55 100.00195 C 59.14075 100.00195 62.501953 96.64074 62.501953 92.5 L 62.501953 85 L 62.501953 83.75 L 62.501953 82.5 L 62.501953 40.65625 L 62.736328 41.59375 L 62.740234 41.611328 L 86.03125 35.152344 L 83.533203 25.544922 C 82.663061 22.169829 79.701027 19.963215 76.478516 19.994141 z M 27.5 22.498047 L 35 22.498047 C 37.7657 22.498047 40 24.7343 40 27.5 L 40 35 L 22.5 35 L 22.5 27.5 C 22.5 24.7343 24.73429 22.498047 27.5 22.498047 z M 47.5 22.498047 L 55 22.498047 C 57.76571 22.498047 60.001953 24.7343 60.001953 27.5 L 60.001953 30.03125 L 60.001953 35 L 42.5 35 L 42.5 27.5 C 42.5 24.7343 44.73429 22.498047 47.5 22.498047 z M 76.728516 22.511719 C 78.713853 22.592159 80.552718 23.973572 81.111328 26.169922 L 83.611328 35.8125 L 65.158203 40.90625 L 62.673828 31.34375 C 62.564458 30.93749 62.517583 30.53127 62.501953 30.125 L 62.501953 29.9375 C 62.548853 27.74994 63.986273 25.810557 66.033203 25.248047 L 75.345703 22.669922 C 75.805678 22.543942 76.270361 22.493156 76.728516 22.511719 z M 22.5 37.5 L 40 37.5 L 40 82.5 L 22.5 82.5 L 22.5 37.5 z M 42.5 37.5 L 60.001953 37.5 L 60.001953 82.5 L 42.5 82.5 L 42.5 37.5 z M 22.5 85 L 40 85 L 40 92.5 C 40 95.2657 37.7657 97.501953 35 97.501953 L 27.5 97.501953 C 24.73429 97.501953 22.5 95.2657 22.5 92.5 L 22.5 85 z M 42.5 85 L 60.001953 85 L 60.001953 92.5 C 60.001953 95.2657 57.76571 97.501953 55 97.501953 L 47.5 97.501953 C 44.73429 97.501953 42.5 95.2657 42.5 92.5 L 42.5 85 z " />
</svg>
