<?xml version="1.0" encoding="UTF-8" standalone="no"?>
<svg
   viewBox="0 0 300 300"
   version="1.1"
   id="svg4"
   sodipodi:docname="chart.svg"
   inkscape:version="1.1.2 (0a00cf5339, 2022-02-04)"
   width="300"
   height="300"
   xmlns:inkscape="http://www.inkscape.org/namespaces/inkscape"
   xmlns:sodipodi="http://sodipodi.sourceforge.net/DTD/sodipodi-0.dtd"
   xmlns="http://www.w3.org/2000/svg"
   xmlns:svg="http://www.w3.org/2000/svg">
  <defs
     id="defs8" />
  <sodipodi:namedview
     id="namedview6"
     pagecolor="#ffffff"
     bordercolor="#666666"
     borderopacity="1.0"
     inkscape:pageshadow="2"
     inkscape:pageopacity="0.0"
     inkscape:pagecheckerboard="0"
     showgrid="false"
     inkscape:zoom="1.0730617"
     inkscape:cx="157.95923"
     inkscape:cy="-64.767943"
     inkscape:window-width="1495"
     inkscape:window-height="1082"
     inkscape:window-x="1819"
     inkscape:window-y="209"
     inkscape:window-maximized="0"
     inkscape:current-layer="svg4"
     width="300px"
     scale-x="200" />
  <!--! Font Awesome Pro 6.4.0 by @fontawesome - https://fontawesome.com License - https://fontawesome.com/license (Commercial License) Copyright 2023 Fonticons, Inc. -->
  <path
     style="fill:#c8c8c8;fill-opacity:1;stroke-width:0.417182"
     d="m 212.51582,140.38046 c 0,-7.88512 5.58668,-14.25558 12.50166,-14.25558 4.53404,0 8.497,2.73878 10.68852,6.84757 1.15083,2.15761 1.81315,4.69303 1.81315,7.40801 v 35.27059 50.26293 c 0,7.88513 -5.58668,14.25559 -12.50167,14.25559 -6.91498,0 -12.50166,-6.37046 -12.50166,-14.25559 z"
     id="path4186" />
  <path
     style="fill:#ffffff;stroke-width:0.417182"
     d="m 225.01748,133.25265 c -3.43796,0 -6.25082,3.20753 -6.25082,7.12781 v 85.53352 c 0,3.92028 2.81288,7.12779 6.25082,7.12779 3.43796,0 6.25084,-3.20751 6.25084,-7.12779 v -85.53352 c 0,-3.92028 -2.81288,-7.12781 -6.25084,-7.12781 z"
     id="path4184" />
  <path
     style="fill:#c8c8c8;fill-opacity:1;stroke-width:0.417182"
     d="m 175.01084,154.63606 c 6.91498,0 12.50166,6.37045 12.50166,14.25557 v 57.02235 c 0,7.88513 -5.58668,14.25559 -12.50166,14.25559 -6.91496,0 -12.50165,-6.37046 -12.50165,-14.25559 v -57.02235 c 0,-7.88512 5.58669,-14.25557 12.50165,-14.25557 z"
     id="path4182" />
  <path
     style="fill:#ffffff;stroke-width:0.417182"
     d="m 181.26168,225.91398 v -57.02235 c 0,-3.92028 -2.81288,-7.12781 -6.25084,-7.12781 -3.43796,0 -6.25081,3.20753 -6.25081,7.12781 v 57.02235 c 0,3.92028 2.81285,7.12779 6.25081,7.12779 3.43796,0 6.25084,-3.20751 6.25084,-7.12779 z"
     id="path4180" />
  <path
     style="fill:#c8c8c8;fill-opacity:1;stroke-width:0.417182"
     d="m 112.40486,140.04634 c 0,-7.94672 5.63033,-14.36696 12.59933,-14.36696 6.969,0 12.59934,6.42024 12.59934,14.36696 v 86.20176 c 0,7.94673 -5.63034,14.36696 -12.59934,14.36696 -6.969,0 -12.59933,-6.42023 -12.59933,-14.36696 z"
     id="path4178" />
  <path
     style="fill:#ffffff;stroke-width:0.417182"
     d="m 125.00419,132.86286 c -3.46481,0 -6.29965,3.23258 -6.29965,7.18348 v 86.20176 c 0,3.95092 2.83484,7.18348 6.29965,7.18348 3.46482,0 6.29966,-3.23256 6.29966,-7.18348 v -86.20176 c 0,-3.9509 -2.83484,-7.18348 -6.29966,-7.18348 z"
     id="path4176" />
  <path
     style="fill:#c8c8c8;fill-opacity:1;stroke-width:0.417182"
     d="m 74.997558,168.89163 c 6.914981,0 12.501657,6.37046 12.501657,14.25558 v 42.76677 c 0,7.88513 -5.586676,14.25559 -12.501657,14.25559 -6.914979,0 -12.501658,-6.37046 -12.501658,-14.25559 v -42.76677 c 0,-7.88512 5.586679,-14.25558 12.501658,-14.25558 z"
     id="path4174" />
  <path
     style="fill:#ffffff;stroke-width:0.417182"
     d="m 81.248399,225.91398 v -42.76677 c 0,-3.92028 -2.812881,-7.12779 -6.250841,-7.12779 -3.437959,0 -6.250819,3.20751 -6.250819,7.12779 v 42.76677 c 0,3.92028 2.81286,7.12779 6.250819,7.12779 3.43796,0 6.250841,-3.20751 6.250841,-7.12779 z"
     id="path4172" />
  <path
     style="fill:#f39200;fill-opacity:1;stroke-width:0.417182"
     d="m 249.23946,41.838707 c 1.13296,1.470121 0.97668,3.742101 -0.31256,5.034001 l -38.46778,38.143179 -33.41676,33.134773 c -1.25016,1.24736 -3.08633,1.15826 -4.25837,-0.1782 L 124.73071,63.177547 55.033979,125.36753 c -1.367379,1.20283 -3.32076,0.93552 -4.375579,-0.62367 -1.05484,-1.5592 -0.820421,-3.78664 0.546939,-4.98946 L 123.08987,55.604268 c 1.25019,-1.11372 3.00822,-0.98008 4.14118,0.26728 l 27.44618,31.322256 20.48989,23.383576 37.61334,-37.288593 32.08342,-31.806459 c 1.28923,-1.29192 3.28169,-1.11372 4.41463,0.356379 z"
     id="path2" />
</svg>
