<?xml version="1.0" encoding="UTF-8" standalone="no"?>
<svg
   viewBox="0 0 300 300"
   version="1.1"
   id="svg4"
   sodipodi:docname="network.svg"
   inkscape:version="1.1.2 (0a00cf5339, 2022-02-04)"
   width="300"
   height="300"
   xmlns:inkscape="http://www.inkscape.org/namespaces/inkscape"
   xmlns:sodipodi="http://sodipodi.sourceforge.net/DTD/sodipodi-0.dtd"
   xmlns="http://www.w3.org/2000/svg"
   xmlns:svg="http://www.w3.org/2000/svg">
  <defs
     id="defs8" />
  <sodipodi:namedview
     id="namedview6"
     pagecolor="#ffffff"
     bordercolor="#666666"
     borderopacity="1.0"
     inkscape:pageshadow="2"
     inkscape:pageopacity="0.0"
     inkscape:pagecheckerboard="0"
     showgrid="false"
     inkscape:zoom="2.3351406"
     inkscape:cx="165.08642"
     inkscape:cy="189.06784"
     inkscape:window-width="1495"
     inkscape:window-height="1082"
     inkscape:window-x="1904"
     inkscape:window-y="267"
     inkscape:window-maximized="0"
     inkscape:current-layer="svg4"
     width="300px" />
  <!--! Font Awesome Pro 6.4.0 by @fontawesome - https://fontawesome.com License - https://fontawesome.com/license (Commercial License) Copyright 2023 Fonticons, Inc. -->
  <path
     id="path2"
     style="fill:#c8c8c8;fill-opacity:1;stroke-width:0.3125"
     d="m 186.25,180.82794 -2.59399,4.28162 28.03161,16.81213 C 210.59387,204.39044 210,207.10943 210,209.98443 c 0,11.03126 8.96875,20 20,20 11.03125,0 20,-8.96874 20,-20 0,-11.03125 -8.96875,-20 -20,-20 -6.375,0 -12.06274,3 -15.719,7.65626 z M 230,195.04669 c 8.28125,0 15,6.71876 15,15 0,8.28124 -6.71875,15 -15,15 -8.28125,0 -15,-6.71876 -15,-15 v -0.0312 c 0,-1.93751 0.37525,-3.78125 1.0315,-5.46876 l 0.18737,0.12513 2.56226,-4.28162 -0.18738,-0.0934 c 2.75,-3.21875 6.84375,-5.25024 11.40625,-5.25024 z" />
  <path
     id="path4850"
     style="fill:#c8c8c8;fill-opacity:1;stroke-width:0.3125"
     d="m 120.09399,167.51556 v -5 H 89.843749 c -1.218754,-9.875 -9.656251,-17.5 -19.843749,-17.5 -11.031247,0 -20,8.96875 -20,20 0,11.03125 8.968753,20 20,20 10.187498,0 18.624995,-7.625 19.843749,-17.5 z M 70,150.01556 a 15,15 0 0 1 0,30 15,15 0 0 1 0,-30 z" />
  <path
     id="path4945"
     style="fill:#4fc1ea;fill-opacity:1;stroke-width:0.3125"
     d="m 155,130.01556 c -4.3125,0 -8.469,0.78113 -12.2815,2.21863 l -4.56237,2.09413 c -10.125,5.56249 -17.21839,15.99974 -18.06214,28.18724 v 5 c 1.28126,18.15625 16.43726,32.5 34.90601,32.5 11.84375,0 22.31226,-5.87475 28.65601,-14.906 l 2.59399,-4.28162 c 2.40625,-4.75 3.78113,-10.12487 3.78113,-15.81237 0,-6.75 -1.906,-13.0315 -5.21851,-18.37524 L 181.875,142.57782 C 175.46875,134.89033 165.8125,130.01557 155,130.01556 Z m 0,5 a 30,30 0 0 1 0,60 30,30 0 0 1 0,-60 z" />
  <path
     id="path4755"
     style="fill:#c8c8c8;fill-opacity:1;stroke-width:0.3125"
     d="m 230,90.015567 c -11.03125,0 -20,8.968744 -20,20.000003 0,3.75 1.03113,7.28137 2.84363,10.28137 l -30.96863,22.28088 2.93762,4.06251 31.12488,-22.40601 c 3.625,3.5625 8.59375,5.78125 14.0625,5.78125 11.03125,0 20,-8.96875 20,-20 0,-11.031259 -8.96875,-20.000003 -20,-20.000003 z m 0,5 a 15.000002,15.000002 0 0 1 0,30.000003 15.000002,15.000002 0 0 1 0,-30.000003 z" />
  <path
     id="path4618"
     style="fill:#c8c8c8;fill-opacity:1;stroke-width:0.3125"
     d="m 120,70.015567 c -11.03125,0 -20,8.968744 -20,20 0,11.031243 8.96875,20.000003 20,20.000003 2.28125,0 4.50012,-0.375 6.53137,-1.09375 l 11.62476,25.4065 4.56237,-2.09413 -11.687,-25.531 C 136.43774,103.14068 140,96.984311 140,90.015567 c 0,-11.031256 -8.96875,-20 -20,-20 z m 0,5 a 15.000002,15.000002 0 0 1 0,30.000003 15.000002,15.000002 0 0 1 0,-30.000003 z" />
</svg>
