<?xml version="1.0" encoding="UTF-8" standalone="no"?>
<svg
   viewBox="0 0 300 300"
   version="1.1"
   id="svg4"
   sodipodi:docname="people.svg"
   width="300"
   height="300"
   inkscape:version="1.1.2 (0a00cf5339, 2022-02-04)"
   xmlns:inkscape="http://www.inkscape.org/namespaces/inkscape"
   xmlns:sodipodi="http://sodipodi.sourceforge.net/DTD/sodipodi-0.dtd"
   xmlns="http://www.w3.org/2000/svg"
   xmlns:svg="http://www.w3.org/2000/svg">
  <defs
     id="defs8" />
  <sodipodi:namedview
     id="namedview6"
     pagecolor="#ffffff"
     bordercolor="#666666"
     borderopacity="1.0"
     inkscape:pageshadow="2"
     inkscape:pageopacity="0.0"
     inkscape:pagecheckerboard="0"
     showgrid="false"
     width="300px"
     inkscape:zoom="1.8882293"
     inkscape:cx="82.352286"
     inkscape:cy="197.80437"
     inkscape:window-width="1495"
     inkscape:window-height="1082"
     inkscape:window-x="1774"
     inkscape:window-y="259"
     inkscape:window-maximized="0"
     inkscape:current-layer="svg4" />
  <!--! Font Awesome Pro 6.4.0 by @fontawesome - https://fontawesome.com License - https://fontawesome.com/license (Commercial License) Copyright 2023 Fonticons, Inc. -->
  <path
     style="fill:#4fc1ea;fill-opacity:1;stroke-width:0.3125"
     d="m 127.49999,194.09967 v 15.90625 c 0,5.53126 4.46874,10 10,10 H 162.5 c 5.53124,0 9.99999,-4.46874 9.99999,-10 v -15.90625 c 10.4375,-5.84375 17.5,-17.03126 17.5,-29.87499 0,-18.90626 -15.31249,-34.21876 -34.21874,-34.21876 h -11.56252 c -18.90624,0 -34.21874,15.3125 -34.21874,34.21876 0,12.84373 7.0625,23.99999 17.5,29.87499 z"
     id="path200" />
  <path
     style="fill:#ffffff;stroke-width:0.3125"
     d="m 129.99999,155.00592 c -1.37501,0 -2.5,1.125 -2.5,2.5 v 30.68751 c -7.56251,-5.28127 -12.5,-14.06251 -12.5,-23.96875 0,-16.15627 13.09375,-29.21877 29.21874,-29.21877 H 155.75 c 16.15624,0 29.21874,13.09376 29.21874,29.21877 0,9.90624 -4.9375,18.68748 -12.50001,23.96875 v -30.68751 c 0,-1.375 -1.12499,-2.5 -2.49998,-2.5 -1.37501,0 -2.50001,1.125 -2.50001,2.5 v 52.5 c 0,2.75001 -2.25,4.99999 -4.99999,4.99999 h -24.96876 c -2.75,0 -5,-2.24998 -5,-4.99999 v -52.5 c 0,-1.375 -1.125,-2.5 -2.5,-2.5 z"
     id="path198" />
  <path
     style="fill:#4fc1ea;fill-opacity:1;stroke-width:0.3125"
     d="m 170,100.00593 a 20.000005,20.000005 0 1 0 -40.00001,0 20.000005,20.000005 0 1 0 40.00001,0 z"
     id="path196" />
  <path
     style="fill:#ffffff;stroke-width:0.3125"
     d="m 134.99999,100.00593 a 15,15 0 1 1 30,0 15,15 0 1 1 -30,0 z"
     id="path194" />
  <path
     style="fill:#c8c8c8;fill-opacity:1;stroke-width:0.3125"
     d="m 187.49999,205.00592 c 0,5.53125 4.46875,9.99999 10,9.99999 h 25 c 5.53126,0 10.00001,-4.46874 10.00001,-9.99999 v -15.90624 c 10.43749,-5.84376 17.5,-17.03126 17.5,-29.87502 0,-18.90624 -15.31251,-34.21873 -34.21875,-34.21873 h -11.56251 c -7.28125,0 -14.03124,2.28125 -19.59376,6.15624 1.28126,1.12501 2.50001,2.3125 3.65627,3.56249 4.59375,-2.99998 10.0625,-4.71874 15.93749,-4.71874 h 11.53125 c 16.15625,0 29.21874,13.09375 29.21874,29.21874 0,9.90626 -4.93748,18.68751 -12.49998,23.96876 v -30.68751 c 0,-1.37499 -1.12501,-2.49998 -2.50002,-2.49998 -1.37499,0 -2.5,1.12499 -2.5,2.49998 v 52.50001 c 0,2.74999 -2.24999,5 -4.99999,5 h -24.96875 c -2.75001,0 -5,-2.25001 -5,-5 v -15.12499 c -1.46875,2.21873 -3.15625,4.31249 -5,6.25 z"
     id="path192" />
  <path
     style="fill:#c8c8c8;fill-opacity:1;stroke-width:0.3125"
     d="m 69.999999,150.00593 c -1.375006,0 -2.5,1.12499 -2.5,2.49998 v 30.68751 c -7.562499,-5.28125 -12.500002,-14.0625 -12.500002,-23.96876 0,-16.15624 13.093752,-29.21874 29.218742,-29.21874 h 11.531264 c 5.874997,0 11.343737,1.75001 15.937487,4.71874 1.15624,-1.24999 2.375,-2.43748 3.65626,-3.56249 -5.56251,-3.87499 -12.31249,-6.15624 -19.593745,-6.15624 H 84.218739 C 65.312495,125.00593 50,140.31842 50,159.22466 c 0,12.84376 7.062497,24.00001 17.5,29.87502 v 15.90624 c 0,5.53125 4.468744,9.99999 9.999999,9.99999 h 24.999991 c 5.53126,0 10,-4.46874 10,-9.99999 v -8.87499 c -1.84375,-1.93751 -3.53125,-4 -5,-6.25 v 15.12499 c 0,2.74999 -2.25,5 -5,5 H 77.499997 c -2.749999,0 -5,-2.25001 -5,-5 v -52.50001 c 0,-1.37499 -1.125004,-2.49998 -2.499998,-2.49998 z"
     id="path190" />
  <path
     style="fill:#c8c8c8;fill-opacity:1;stroke-width:0.3125"
     d="m 227.49999,97.505917 a 17.5,17.5 0 1 0 -35,0 17.5,17.5 0 1 0 35,0 z"
     id="path188" />
  <path
     style="fill:#ffffff;stroke-width:0.3125"
     d="m 197.49999,97.505917 a 12.500001,12.500001 0 1 1 25,0 12.500001,12.500001 0 1 1 -25,0 z"
     id="path186" />
  <path
     style="fill:#c8c8c8;fill-opacity:1;stroke-width:0.3125"
     d="m 107.49999,97.505917 a 17.5,17.5 0 1 0 -34.999991,0 17.5,17.5 0 1 0 34.999991,0 z"
     id="path184" />
  <path
     style="fill:#ffffff;stroke-width:0.3125"
     d="m 77.499997,97.505917 a 12.5,12.5 0 1 1 24.999993,0 12.5,12.5 0 1 1 -24.999993,0 z"
     id="path2" />
</svg>
