<?xml version="1.0" encoding="UTF-8" standalone="no"?>
<svg
   viewBox="0 0 120 120"
   version="1.1"
   id="svg4"
   sodipodi:docname="signs-post.svg"
   width="120"
   height="120"
   inkscape:version="1.1.2 (0a00cf5339, 2022-02-04)"
   xmlns:inkscape="http://www.inkscape.org/namespaces/inkscape"
   xmlns:sodipodi="http://sodipodi.sourceforge.net/DTD/sodipodi-0.dtd"
   xmlns="http://www.w3.org/2000/svg"
   xmlns:svg="http://www.w3.org/2000/svg">
  <defs
     id="defs8" />
  <sodipodi:namedview
     id="namedview6"
     pagecolor="#ffffff"
     bordercolor="#666666"
     borderopacity="1.0"
     inkscape:pageshadow="2"
     inkscape:pageopacity="0.0"
     inkscape:pagecheckerboard="0"
     showgrid="false"
     width="120px"
     inkscape:zoom="13.064827"
     inkscape:cx="77.995674"
     inkscape:cy="51.665437"
     inkscape:window-width="3840"
     inkscape:window-height="1459"
     inkscape:window-x="0"
     inkscape:window-y="32"
     inkscape:window-maximized="1"
     inkscape:current-layer="svg4" />
  <!--! Font Awesome Pro 6.4.0 by @fontawesome - https://fontawesome.com License - https://fontawesome.com/license (Commercial License) Copyright 2023 Fonticons, Inc. -->
  <path
     id="path2"
     style="stroke-width:0.15625;fill:#c8c8c8;fill-opacity:1"
     d="M 62.5 50 L 57.5 50 L 57.5 55 L 30 55 L 20 67.5 L 30 80 L 57.5 80 L 57.5 100 L 62.5 100 L 62.5 80 L 90 80 L 95 80 L 95 75 L 95 60 L 95 55 L 90 55 L 62.5 55 L 62.5 50 z M 32.40625 60 L 90 60 L 90 75 L 32.40625 75 L 26.40625 67.5 L 32.40625 60 z " />
  <path
     id="path996"
     style="stroke-width:0.15625;fill:#f39200;fill-opacity:1"
     d="M 25 25 L 25 30 L 25 45 L 25 50 L 30 50 L 57.5 50 L 62.5 50 L 90 50 L 100 37.5 L 90 25 L 62.5 25 L 57.5 25 L 30 25 L 25 25 z M 30 30 L 87.59375 30 L 93.59375 37.5 L 87.59375 45 L 30 45 L 30 30 z " />
  <path
     id="path939"
     style="stroke-width:0.15625;fill:#c8c8c8;fill-opacity:1"
     d="M 57.5 20 L 57.5 25 L 62.5 25 L 62.5 20 L 57.5 20 z " />
</svg>
