<?xml version="1.0" encoding="UTF-8" standalone="no"?>
<!-- Created with Inkscape (http://www.inkscape.org/) -->

<svg
   width="200.12325mm"
   height="29.09717mm"
   viewBox="0 0 200.12325 29.09717"
   version="1.1"
   id="svg934"
   inkscape:version="1.1.2 (0a00cf5339, 2022-02-04)"
   sodipodi:docname="logo_long.svg"
   xmlns:inkscape="http://www.inkscape.org/namespaces/inkscape"
   xmlns:sodipodi="http://sodipodi.sourceforge.net/DTD/sodipodi-0.dtd"
   xmlns="http://www.w3.org/2000/svg"
   xmlns:svg="http://www.w3.org/2000/svg">
  <sodipodi:namedview
     id="namedview936"
     pagecolor="#ffffff"
     bordercolor="#666666"
     borderopacity="1.0"
     inkscape:pageshadow="2"
     inkscape:pageopacity="0.0"
     inkscape:pagecheckerboard="0"
     inkscape:document-units="mm"
     showgrid="false"
     inkscape:zoom="0.69843706"
     inkscape:cx="340.76084"
     inkscape:cy="254.13886"
     inkscape:window-width="1495"
     inkscape:window-height="1082"
     inkscape:window-x="1345"
     inkscape:window-y="235"
     inkscape:window-maximized="0"
     inkscape:current-layer="layer1" />
  <defs
     id="defs931" />
  <g
     inkscape:label="Layer 1"
     inkscape:groupmode="layer"
     id="layer1"
     transform="translate(-86.708559,-99.291125)">
    <g
       aria-label="meet.isaac"
       id="text1911"
       style="font-size:69.9928px;line-height:1.25;font-family:'Roboto Slab';-inkscape-font-specification:'Roboto Slab';white-space:pre;fill:#334155;stroke-width:1.74982"
       transform="matrix(0.92381469,0,0,0.92381469,-30.306706,-453.36311)"
       inkscape:export-filename="/home/patrick/Desktop/text1911.png"
       inkscape:export-xdpi="96"
       inkscape:export-ydpi="96">
      <path
         d="m 129.04506,629.37742 q -0.90991,0 -1.67983,-0.55994 -0.69993,-0.55995 -0.69993,-1.60984 v -16.44831 q 0,-1.18987 0.69993,-1.74982 0.76992,-0.62993 1.67983,-0.62993 0.69993,0 1.32986,0.34996 0.62994,0.27997 0.90991,1.04989 0.13999,0.41996 0.13999,0.76993 1.04989,-1.11989 2.72971,-1.81982 1.67983,-0.69993 3.28967,-0.69993 4.54953,0 6.7193,3.63963 0.83992,-1.46985 2.72972,-2.51974 1.9598,-1.11989 4.75951,-1.11989 3.77961,0 6.01938,2.51975 2.23977,2.51974 2.23977,7.41923 v 9.23905 q 0,1.04989 -0.76992,1.60984 -0.76992,0.55994 -1.60983,0.55994 -0.90991,0 -1.67983,-0.55994 -0.69993,-0.55995 -0.69993,-1.60984 v -8.81909 q 0,-6.01938 -4.47954,-6.01938 -2.51974,0 -3.63962,1.32986 -1.11989,1.32986 -1.39986,3.14968 v 10.35893 q 0,1.04989 -0.76992,1.60984 -0.76992,0.55994 -1.60983,0.55994 -0.90991,0 -1.67983,-0.55994 -0.69993,-0.55995 -0.69993,-1.60984 v -8.81909 q 0,-3.07968 -1.18987,-4.54953 -1.18988,-1.46985 -3.21967,-1.46985 -3.00969,0 -4.05959,1.8898 -0.97989,1.81982 -0.97989,4.05959 v 8.88908 q 0,1.04989 -0.76993,1.60984 -0.69992,0.55994 -1.60983,0.55994 z"
         style="font-family:Dongle;-inkscape-font-specification:Dongle"
         id="path55652" />
      <path
         d="m 174.89029,629.37742 q -5.24946,0 -8.18916,-3.00969 -2.93969,-3.00969 -2.93969,-8.11917 0,-4.47954 2.93969,-7.34924 3.00969,-2.86971 7.69921,-2.86971 4.54953,0 7.27925,2.65973 2.72972,2.58973 2.72972,6.43934 0,1.53984 -0.83991,2.30976 -0.76992,0.76992 -2.02979,0.76992 h -12.17875 q -0.69993,0 -0.48995,0.76992 0.55994,1.9598 2.23977,3.07969 1.74982,1.04989 3.9196,1.04989 1.60983,0 3.07968,-0.41996 1.53984,-0.41996 2.65973,-1.25987 0.34996,-0.27997 0.9099,-0.27997 0.76992,0 1.39986,0.69993 0.62993,0.62993 0.62993,1.53984 0,0.41996 -0.13998,0.83991 -0.13999,0.41996 -0.62994,0.83992 -1.81981,1.32986 -3.91959,1.81981 -2.0298,0.48995 -4.12958,0.48995 z m 4.05958,-12.80868 q 0.41996,0 0.41996,-0.41996 0,-1.60983 -1.46985,-2.79971 -1.39985,-1.18988 -3.49964,-1.18988 -1.81981,0 -3.49964,0.9799 -1.60983,0.9799 -1.9598,2.58973 0,0 0,0.07 -0.07,0.27997 -0.07,0.48995 0.07,0.20997 0.62994,0.20997 z"
         style="font-family:Dongle;-inkscape-font-specification:Dongle"
         id="path55654" />
      <path
         d="m 199.03762,629.37742 q -5.24946,0 -8.18916,-3.00969 -2.93969,-3.00969 -2.93969,-8.11917 0,-4.47954 2.93969,-7.34924 3.00969,-2.86971 7.69921,-2.86971 4.54953,0 7.27925,2.65973 2.72972,2.58973 2.72972,6.43934 0,1.53984 -0.83991,2.30976 -0.76992,0.76992 -2.02979,0.76992 h -12.17875 q -0.69993,0 -0.48995,0.76992 0.55994,1.9598 2.23977,3.07969 1.74982,1.04989 3.9196,1.04989 1.60983,0 3.07968,-0.41996 1.53984,-0.41996 2.65973,-1.25987 0.34996,-0.27997 0.9099,-0.27997 0.76992,0 1.39986,0.69993 0.62993,0.62993 0.62993,1.53984 0,0.41996 -0.13998,0.83991 -0.13999,0.41996 -0.62994,0.83992 -1.81981,1.32986 -3.91959,1.81981 -2.02979,0.48995 -4.12958,0.48995 z m 4.05958,-12.80868 q 0.41996,0 0.41996,-0.41996 0,-1.60983 -1.46985,-2.79971 -1.39985,-1.18988 -3.49964,-1.18988 -1.81981,0 -3.49964,0.9799 -1.60983,0.9799 -1.9598,2.58973 0,0 0,0.07 -0.07,0.27997 -0.07,0.48995 0.07,0.20997 0.62994,0.20997 z"
         style="font-family:Dongle;-inkscape-font-specification:Dongle"
         id="path55656" />
      <path
         d="m 220.66533,629.37742 q -2.72971,0 -4.47953,-1.67983 -1.74982,-1.67983 -1.74982,-5.03948 v -8.88909 q 0,-0.69992 -0.69993,-0.69992 h -1.25987 q -0.90991,0 -1.53984,-0.55995 -0.62994,-0.62993 -0.62994,-1.53984 0,-0.9799 0.62994,-1.60983 0.62993,-0.62994 1.53984,-0.62994 h 1.25987 q 0.69993,0 0.69993,-0.69993 v -5.87939 q 0,-0.9799 0.62993,-1.53984 0.69993,-0.62994 1.67983,-0.62994 1.04989,0 1.67982,0.62994 0.69993,0.55994 0.69993,1.53984 v 5.87939 q 0,0.69993 0.69993,0.69993 h 3.77961 q 0.83992,0 1.46985,0.62994 0.62994,0.62993 0.62994,1.60983 0,0.90991 -0.62994,1.53984 -0.55994,0.55995 -1.53984,0.55995 h -3.70962 q -0.69993,0 -0.69993,0.69992 v 8.25915 q 0,2.9397 2.37976,2.9397 0.69993,0 1.46985,-0.20998 0.76992,-0.20997 1.04989,-0.20997 0.9799,0 1.46985,0.62993 0.55994,0.62994 0.55994,1.46985 0,0.62993 -0.34996,1.25987 -0.34997,0.55994 -1.11989,0.83991 -0.76992,0.27997 -1.9598,0.41996 -1.11988,0.20998 -1.9598,0.20998 z"
         style="font-family:Dongle;-inkscape-font-specification:Dongle"
         id="path55658" />
      <path
         d="m 233.82396,629.72738 q -1.32986,0 -2.30976,-0.9099 -0.9099,-0.83992 -0.9099,-2.0298 0,-1.25987 0.9099,-2.09978 0.9799,-0.90991 2.30976,-0.90991 1.25988,0 2.16978,0.90991 0.90991,0.83991 0.90991,2.09978 0,1.18988 -0.90991,2.0298 -0.9099,0.9099 -2.16978,0.9099 z"
         style="font-family:Dongle;-inkscape-font-specification:Dongle"
         id="path55660" />
      <path
         style="font-family:Dongle;-inkscape-font-specification:Dongle;fill:#fe6019;fill-opacity:1"
         d="m 246.07263,604.18001 q -1.32987,0 -2.30977,-0.83991 -0.9099,-0.90991 -0.9099,-2.16978 0,-1.18988 0.9099,-2.02979 0.9799,-0.90991 2.30977,-0.90991 1.25987,0 2.16977,0.90991 0.90991,0.83991 0.90991,2.02979 0,1.25987 -0.90991,2.16978 -0.9099,0.83991 -2.16977,0.83991 z"
         id="path55849" />
      <path
         style="font-family:Dongle;-inkscape-font-specification:Dongle"
         d="m 246.00263,629.37742 q -0.9099,0 -1.67982,-0.55994 -0.69993,-0.55995 -0.69993,-1.60984 v -16.79827 q 0,-1.18988 0.69993,-1.74982 0.76992,-0.62994 1.67982,-0.62994 0.90991,0 1.60984,0.62994 0.76992,0.55994 0.76992,1.74982 v 16.79827 q 0,1.04989 -0.76992,1.60984 -0.69993,0.55994 -1.60984,0.55994 z"
         id="path55662" />
      <path
         d="m 261.33103,629.37742 q -2.02979,0 -4.12957,-0.55994 -2.09979,-0.48995 -3.70962,-1.60984 -0.83992,-0.76992 -0.83992,-1.67983 0,-0.9099 0.69993,-1.60983 0.76992,-0.69993 1.67983,-0.69993 0.48995,0 0.9799,0.27997 1.25987,0.76992 2.8697,1.25987 1.67983,0.41996 3.14968,0.41996 1.39985,0 2.37975,-0.48995 1.0499,-0.48995 1.0499,-1.60983 0,-1.11989 -0.9799,-1.67983 -0.9799,-0.55994 -3.35966,-0.83991 -0.9799,-0.13999 -2.37975,-0.34997 -1.32987,-0.20998 -2.65973,-0.76992 -1.32986,-0.55994 -2.23977,-1.67983 -0.90991,-1.11988 -0.90991,-3.00969 0,-3.07968 2.23977,-4.89949 2.30977,-1.81982 6.15937,-1.81982 2.23977,0 4.19957,0.55995 2.02979,0.55994 3.00969,1.39985 0.76992,0.62994 0.76992,1.46985 0,0.90991 -0.62994,1.60984 -0.62993,0.69992 -1.53984,0.69992 -0.48995,0 -0.9099,-0.20997 -1.11989,-0.62994 -2.51974,-0.90991 -1.32987,-0.34996 -2.58974,-0.34996 -1.46985,0 -2.51974,0.48995 -0.9799,0.41995 -0.9799,1.39985 0,0.69993 0.55994,1.25987 0.62994,0.48995 3.14968,0.83992 1.18988,0.13998 2.65973,0.41995 1.53984,0.27997 2.93969,0.90991 1.39986,0.55994 2.30977,1.81981 0.9099,1.25987 0.9099,3.42965 0,2.23977 -1.25987,3.70962 -1.25987,1.39985 -3.28966,2.09978 -1.9598,0.69993 -4.26956,0.69993 z"
         style="font-family:Dongle;-inkscape-font-specification:Dongle"
         id="path55664" />
      <path
         d="m 283.37869,629.37742 q -3.00969,0 -5.38945,-1.39986 -2.37975,-1.39985 -3.70962,-3.8496 -1.32986,-2.51974 -1.32986,-5.59943 0,-3.00969 1.32986,-5.38944 1.32987,-2.37976 3.70962,-3.70962 2.37976,-1.39986 5.38945,-1.39986 1.9598,0 3.49964,0.69993 1.53984,0.62994 2.65972,1.67983 0.13999,-0.9799 0.83992,-1.46985 0.69992,-0.55994 1.53984,-0.55994 0.9099,0 1.60983,0.62993 0.76992,0.55995 0.76992,1.74982 v 16.44831 q 0,1.04989 -0.76992,1.60984 -0.69993,0.55994 -1.60983,0.55994 -0.90991,0 -1.67983,-0.55994 -0.69993,-0.55995 -0.69993,-1.60984 v -0.27997 q -1.11988,1.11989 -2.65972,1.74982 -1.53984,0.69993 -3.49964,0.69993 z m 0.41995,-4.33956 q 2.65973,0 4.19957,-1.74982 1.53984,-1.81981 1.53984,-4.75951 0,-2.79971 -1.53984,-4.47953 -1.53984,-1.67983 -4.19957,-1.67983 -2.72972,0 -4.40954,1.67983 -1.67983,1.67982 -1.67983,4.47953 0,2.9397 1.67983,4.75951 1.67982,1.74982 4.40954,1.74982 z"
         style="font-family:Dongle;-inkscape-font-specification:Dongle"
         id="path55666" />
      <path
         d="m 308.57601,629.37742 q -3.00969,0 -5.38944,-1.39986 -2.37976,-1.39985 -3.70962,-3.8496 -1.32986,-2.51974 -1.32986,-5.59943 0,-3.00969 1.32986,-5.38944 1.32986,-2.37976 3.70962,-3.70962 2.37975,-1.39986 5.38944,-1.39986 1.9598,0 3.49964,0.69993 1.53984,0.62994 2.65973,1.67983 0.13999,-0.9799 0.83991,-1.46985 0.69993,-0.55994 1.53984,-0.55994 0.90991,0 1.60984,0.62993 0.76992,0.55995 0.76992,1.74982 v 16.44831 q 0,1.04989 -0.76992,1.60984 -0.69993,0.55994 -1.60984,0.55994 -0.9099,0 -1.67982,-0.55994 -0.69993,-0.55995 -0.69993,-1.60984 v -0.27997 q -1.11989,1.11989 -2.65973,1.74982 -1.53984,0.69993 -3.49964,0.69993 z m 0.41996,-4.33956 q 2.65973,0 4.19957,-1.74982 1.53984,-1.81981 1.53984,-4.75951 0,-2.79971 -1.53984,-4.47953 -1.53984,-1.67983 -4.19957,-1.67983 -2.72972,0 -4.40955,1.67983 -1.67982,1.67982 -1.67982,4.47953 0,2.9397 1.67982,4.75951 1.67983,1.74982 4.40955,1.74982 z"
         style="font-family:Dongle;-inkscape-font-specification:Dongle"
         id="path55668" />
      <path
         d="m 334.0533,629.37742 q -4.68952,0 -7.69921,-3.00969 -3.00969,-3.00969 -3.00969,-7.8392 0,-3.07968 1.39985,-5.45943 1.39986,-2.37976 3.77961,-3.70962 2.44975,-1.32987 5.52944,-1.32987 4.19956,0 7.13926,1.9598 0.9799,0.62994 0.9799,1.74982 0,1.11989 -0.69993,1.74982 -0.69993,0.62994 -1.60983,0.62994 -0.62994,0 -1.11989,-0.27997 -2.58973,-1.74982 -4.8295,-1.53984 -2.72972,0.27997 -4.26956,1.8898 -1.53984,1.53984 -1.53984,4.40955 0,3.00969 1.60983,4.75951 1.67983,1.67982 4.68952,1.67982 2.65973,0 5.31945,-2.02979 0.55994,-0.48995 1.46985,-0.48995 1.04989,0 1.53984,0.83992 0.55995,0.76992 0.55995,1.46985 0,0.9799 -0.90991,1.81981 -1.74982,1.53984 -3.8496,2.09978 -2.09979,0.62994 -4.47954,0.62994 z"
         style="font-family:Dongle;-inkscape-font-specification:Dongle"
         id="path55670" />
    </g>
  </g>
</svg>
