<?xml version="1.0" standalone="no"?>
<!DOCTYPE svg PUBLIC "-//W3C//DTD SVG 20010904//EN"
 "http://www.w3.org/TR/2001/REC-SVG-20010904/DTD/svg10.dtd">
<svg version="1.0" xmlns="http://www.w3.org/2000/svg"
 width="113.000000pt" height="113.000000pt" viewBox="0 0 113.000000 113.000000"
 preserveAspectRatio="xMidYMid meet">
<metadata>
Created by potrace 1.14, written by Peter Selinger 2001-2017
</metadata>
<g transform="translate(0.000000,113.000000) scale(0.100000,-0.100000)"
fill="#000000" stroke="none">
<path d="M995 945 c-51 -50 -16 -125 57 -125 28 0 42 7 57 26 28 35 26 65 -4
98 -32 34 -77 35 -110 1z"/>
<path d="M223 711 c-17 -5 -46 -17 -64 -29 l-33 -20 -18 24 c-22 28 -54 31
-86 8 -22 -15 -22 -18 -22 -254 0 -236 0 -239 22 -254 30 -21 61 -20 82 3 15
17 18 41 18 163 0 196 20 241 110 252 50 6 92 -16 112 -59 15 -31 19 -67 20
-192 1 -141 3 -156 20 -169 25 -18 57 -18 81 0 17 12 19 30 21 174 2 174 11
206 61 233 31 17 96 16 127 0 42 -23 50 -55 54 -229 3 -152 5 -163 25 -177 29
-20 60 -19 81 4 16 17 17 39 14 198 -3 159 -5 182 -25 218 -43 81 -104 115
-199 111 -66 -3 -133 -32 -158 -68 l-16 -23 -23 26 c-12 14 -33 33 -47 42 -30
19 -113 29 -157 18z"/>
<path d="M1012 704 c-22 -15 -22 -18 -22 -259 0 -241 0 -244 22 -259 30 -21
61 -20 81 2 15 16 17 49 17 255 0 224 -1 238 -20 257 -24 24 -48 25 -78 4z"/>
</g>
</svg>
